<?xml version="1.0" encoding="UTF-8"?>
<svg width="512" height="512" viewBox="0 0 512 512" fill="none" xmlns="http://www.w3.org/2000/svg">
  <!-- Background circle for contrast on any tab theme -->
  <circle cx="256" cy="256" r="240" fill="#FFFFFF"/>

  <!-- Rabbit head silhouette -->
  <!-- Ears -->
  <ellipse cx="206" cy="150" rx="38" ry="90" fill="#111111"/>
  <ellipse cx="306" cy="150" rx="38" ry="90" fill="#111111"/>
  <!-- Head -->
  <path d="M256 330c61 0 110-43 110-96 0-53-49-96-110-96s-110 43-110 96c0 53 49 96 110 96z" fill="#111111"/>
  <!-- Cheek cut-in to suggest silhouette (slight indent) -->
  <path d="M176 250c0-44 36-80 80-80 35 0 64 22 75 53-12-22-38-37-68-37-44 0-80 36-80 80 0 9 1 17 3 24-6-11-10-25-10-40z" fill="#FFFFFF"/>

  <!-- Rabbit hole (oval) below the head -->
  <ellipse cx="256" cy="400" rx="120" ry="36" fill="#222222"/>
  <!-- Inner soft highlight to give depth -->
  <ellipse cx="256" cy="400" rx="85" ry="22" fill="#3A3A3A"/>
</svg>
